<?xml version="1.0" encoding="utf-8"?>
<!-- Generator: Adobe Illustrator 21.0.2, SVG Export Plug-In . SVG Version: 6.00 Build 0)  -->
<svg version="1.1" id="Слой_1" xmlns="http://www.w3.org/2000/svg" xmlns:xlink="http://www.w3.org/1999/xlink" x="0px" y="0px"
	 viewBox="0 0 214.5 38.2" style="enable-background:new 0 0 214.5 38.2;" xml:space="preserve">
<style type="text/css">
	.st0{fill:#FFFFFF;}
</style>
<g>
	<path class="st0" d="M21.4,25.9H9.1l-1.9,5.6H0.6L11.5,0.6H19l10.9,30.9h-6.6L21.4,25.9z M19.5,20.2L15.3,7.6L11,20.2H19.5z"/>
	<path class="st0" d="M55.4,26.2v11.3h-5.6v-5.9H36.1v5.9h-5.6V26.2h2.7c0.6-0.9,1.1-2,1.4-3.2c0.3-1.2,0.5-2.7,0.5-4.6V9.4h17.3
		v16.7H55.4z M46.9,26.2V14.5h-6.2v3.8c0,3.1-0.5,5.7-1.4,7.8H46.9z"/>
	<path class="st0" d="M77.2,22.2c0.5,0.9,0.8,1.9,0.8,3c0,1.9-0.6,3.4-1.9,4.5c-1.3,1.2-3.1,1.7-5.5,1.7H59V9.4h10.7
		c2.3,0,4.1,0.6,5.4,1.7c1.3,1.1,1.9,2.7,1.9,4.5c0,1.9-0.7,3.5-2.2,4.5C75.9,20.7,76.7,21.4,77.2,22.2z M64.4,14.1v4h4.9
		c1.6,0,2.4-0.7,2.4-2c0-0.6-0.2-1.1-0.6-1.5c-0.4-0.3-1-0.5-1.8-0.5H64.4z M71.8,26.1c0.4-0.4,0.7-0.9,0.7-1.6
		c0-0.6-0.2-1.1-0.7-1.5c-0.4-0.4-1-0.5-1.8-0.5h-5.6v4.1H70C70.7,26.7,71.3,26.5,71.8,26.1z"/>
	<path class="st0" d="M104.1,9.4v22.1h-5.7v-2.6c-1.7,2.1-4.1,3.2-7.2,3.2c-1.9,0-3.7-0.5-5.4-1.5c-1.6-1-2.9-2.4-3.9-4.2
		c-1-1.8-1.5-3.7-1.5-5.9c0-2.1,0.5-4.1,1.5-5.9c1-1.8,2.3-3.2,3.9-4.2c1.6-1,3.4-1.5,5.4-1.5c3.1,0,5.5,1.1,7.2,3.2V9.4H104.1z
		 M96.6,24.9c1.1-1.2,1.7-2.7,1.7-4.5c0-1.9-0.6-3.4-1.7-4.5c-1.1-1.1-2.6-1.7-4.4-1.7c-1.8,0-3.2,0.6-4.4,1.7
		c-1.1,1.2-1.7,2.7-1.7,4.5c0,1.8,0.6,3.3,1.7,4.5c1.1,1.2,2.6,1.7,4.4,1.7C94,26.7,95.5,26.1,96.6,24.9z"/>
	<path class="st0" d="M129.4,9.4v22.1h-5.7v-8.4h-8.8v8.4h-5.7V9.4h5.7v8.3h8.8V9.4H129.4z"/>
	<path class="st0" d="M152,14.9h-6.9v16.6h-5.7V14.9h-7V9.4H152V14.9z"/>
	<path class="st0" d="M177.5,9.4v22.1h-5.7v-2.6c-1.7,2.1-4.1,3.2-7.2,3.2c-1.9,0-3.7-0.5-5.4-1.5c-1.6-1-2.9-2.4-3.9-4.2
		c-1-1.8-1.5-3.7-1.5-5.9c0-2.1,0.5-4.1,1.5-5.9c1-1.8,2.3-3.2,3.9-4.2c1.6-1,3.4-1.5,5.4-1.5c3.1,0,5.5,1.1,7.2,3.2V9.4H177.5z
		 M170.1,24.9c1.1-1.2,1.7-2.7,1.7-4.5c0-1.9-0.6-3.4-1.7-4.5c-1.1-1.1-2.6-1.7-4.4-1.7c-1.8,0-3.2,0.6-4.4,1.7
		c-1.1,1.2-1.7,2.7-1.7,4.5c0,1.8,0.6,3.3,1.7,4.5c1.1,1.2,2.6,1.7,4.4,1.7C167.5,26.7,169,26.1,170.1,24.9z"/>
	<path class="st0" d="M202.9,9.4v22.1h-5.7v-8.4h-8.8v8.4h-5.7V9.4h5.7v8.3h8.8V9.4H202.9z"/>
</g>
<g>
	<path class="st0" d="M210.7,4.5c0.8,0.4,1.4,1.1,1.8,1.8c0.4,0.8,0.7,1.6,0.7,2.5c0,0.9-0.2,1.7-0.7,2.5c-0.4,0.8-1.1,1.4-1.8,1.8
		c-0.8,0.4-1.6,0.7-2.5,0.7c-0.9,0-1.7-0.2-2.5-0.7c-0.8-0.4-1.4-1.1-1.8-1.8c-0.4-0.8-0.7-1.6-0.7-2.5c0-0.9,0.2-1.7,0.7-2.5
		c0.4-0.8,1.1-1.4,1.8-1.8c0.8-0.4,1.6-0.7,2.5-0.7C209.1,3.8,209.9,4.1,210.7,4.5z M210.4,12.8c0.7-0.4,1.2-1,1.6-1.7
		c0.4-0.7,0.6-1.5,0.6-2.3c0-0.8-0.2-1.6-0.6-2.3c-0.4-0.7-0.9-1.3-1.6-1.7c-0.7-0.4-1.4-0.6-2.3-0.6c-0.8,0-1.6,0.2-2.3,0.6
		c-0.7,0.4-1.2,1-1.6,1.7c-0.4,0.7-0.6,1.5-0.6,2.3c0,0.8,0.2,1.6,0.6,2.3c0.4,0.7,1,1.3,1.6,1.7c0.7,0.4,1.5,0.6,2.3,0.6
		C209,13.4,209.7,13.2,210.4,12.8z M210.1,8.9c-0.1,0.3-0.3,0.5-0.6,0.6l1.1,1.9H209l-0.7-1.5h-0.5v1.5h-1.5V6.3h2.1
		c0.6,0,1,0.2,1.4,0.5c0.4,0.3,0.6,0.7,0.6,1.2C210.3,8.3,210.2,8.6,210.1,8.9z M207.7,8.7h0.5c0.2,0,0.3,0,0.5-0.1
		c0.1-0.1,0.2-0.2,0.2-0.4c0-0.3-0.2-0.5-0.6-0.5h-0.5V8.7z"/>
</g>
</svg>
